<mxfile host="drawio-plugin" modified="2022-12-28T07:48:50.340Z" agent="5.0 (Windows NT 6.2; Win64; x64) AppleWebKit/537.36 (KHTML, like Gecko) Chrome/104.0.5112.102 Safari/537.36" etag="gMr7BzFFhFtmfHYJmM0p" version="20.5.3" type="embed"><diagram name="Page-1" id="c7558073-3199-34d8-9f00-42111426c3f3"><mxGraphModel dx="1139" dy="1891" grid="1" gridSize="10" guides="1" tooltips="1" connect="1" arrows="1" fold="1" page="1" pageScale="1" pageWidth="826" pageHeight="1169" background="none" math="0" shadow="0"><root><mxCell id="0"/><mxCell id="1" parent="0"/><UserObject label="bcp" id="98"><mxCell style="swimlane;horizontal=0;whiteSpace=wrap;html=1;fontFamily=Lucida Console;verticalAlign=middle;align=left;" parent="1" vertex="1"><mxGeometry x="20" y="762" width="2680" height="1848" as="geometry"/></mxCell></UserObject><mxCell id="239" style="edgeStyle=orthogonalEdgeStyle;rounded=0;orthogonalLoop=1;jettySize=auto;html=1;entryX=0.5;entryY=0;entryDx=0;entryDy=0;fontSize=16;fontFamily=Lucida Console;" parent="98" source="230" target="238" edge="1"><mxGeometry relative="1" as="geometry"/></mxCell><mxCell id="240" value="&lt;font style=&quot;font-size: 16px;&quot;&gt;新单&lt;/font&gt;" style="edgeLabel;html=1;align=center;verticalAlign=middle;resizable=0;points=[];" parent="239" vertex="1" connectable="0"><mxGeometry x="-0.034" y="-2" relative="1" as="geometry"><mxPoint as="offset"/></mxGeometry></mxCell><mxCell id="242" style="edgeStyle=orthogonalEdgeStyle;rounded=0;orthogonalLoop=1;jettySize=auto;html=1;exitX=1;exitY=0.5;exitDx=0;exitDy=0;entryX=0.5;entryY=0;entryDx=0;entryDy=0;" parent="98" source="230" target="241" edge="1"><mxGeometry relative="1" as="geometry"/></mxCell><mxCell id="243" value="&lt;font face=&quot;Lucida Console&quot; style=&quot;font-size: 16px;&quot;&gt;续期&lt;/font&gt;" style="edgeLabel;html=1;align=center;verticalAlign=middle;resizable=0;points=[];" parent="242" vertex="1" connectable="0"><mxGeometry x="-0.0043" y="2" relative="1" as="geometry"><mxPoint as="offset"/></mxGeometry></mxCell><mxCell id="230" value="策略" style="rhombus;whiteSpace=wrap;html=1;fontSize=16;fontFamily=Lucida Console;" parent="98" vertex="1"><mxGeometry x="1595" y="673" width="80" height="80" as="geometry"/></mxCell><mxCell id="237" style="edgeStyle=orthogonalEdgeStyle;rounded=0;orthogonalLoop=1;jettySize=auto;html=1;entryX=0.5;entryY=0;entryDx=0;entryDy=0;exitX=0.5;exitY=1;exitDx=0;exitDy=0;" parent="98" source="256" target="230" edge="1"><mxGeometry relative="1" as="geometry"><mxPoint x="1635.1" y="625" as="sourcePoint"/></mxGeometry></mxCell><mxCell id="259" value="" style="edgeStyle=orthogonalEdgeStyle;rounded=0;orthogonalLoop=1;jettySize=auto;html=1;fontSize=16;" parent="98" source="238" target="258" edge="1"><mxGeometry relative="1" as="geometry"/></mxCell><mxCell id="238" value="新单作成" style="rounded=1;whiteSpace=wrap;html=1;fontFamily=Lucida Console;fontSize=16;" parent="98" vertex="1"><mxGeometry x="1320" y="763" width="120" height="60" as="geometry"/></mxCell><mxCell id="245" style="edgeStyle=orthogonalEdgeStyle;rounded=0;orthogonalLoop=1;jettySize=auto;html=1;entryX=0.5;entryY=0;entryDx=0;entryDy=0;" parent="98" source="241" target="428" edge="1"><mxGeometry relative="1" as="geometry"><mxPoint x="1880" y="898" as="targetPoint"/></mxGeometry></mxCell><mxCell id="241" value="续期作成" style="rounded=1;whiteSpace=wrap;html=1;fontSize=16;fontFamily=Lucida Console;" parent="98" vertex="1"><mxGeometry x="1820" y="763" width="120" height="60" as="geometry"/></mxCell><mxCell id="432" value="" style="edgeStyle=none;rounded=0;orthogonalLoop=1;jettySize=auto;html=1;fontFamily=Lucida Console;fontSize=16;" parent="98" source="248" target="253" edge="1"><mxGeometry relative="1" as="geometry"/></mxCell><mxCell id="248" value="课金数据汇总" style="rounded=1;whiteSpace=wrap;html=1;fontSize=16;fontFamily=Lucida Console;" parent="98" vertex="1"><mxGeometry x="1371" y="147.57999999999998" width="139" height="62" as="geometry"/></mxCell><mxCell id="221" value="&lt;font color=&quot;#323232&quot;&gt;&lt;span style=&quot;font-size: 18px; background-color: rgba(255, 255, 255, 0.01);&quot;&gt;雅虎课金文件作成&lt;/span&gt;&lt;/font&gt;" style="strokeWidth=2;html=1;shape=mxgraph.flowchart.start_2;whiteSpace=wrap;fillColor=#f8cecc;strokeColor=#b85450;fontFamily=Lucida Console;" parent="98" vertex="1"><mxGeometry x="120" y="138.2" width="87" height="81" as="geometry"/></mxCell><mxCell id="223" style="edgeStyle=orthogonalEdgeStyle;rounded=0;orthogonalLoop=1;jettySize=auto;html=1;entryX=0;entryY=0.5;entryDx=0;entryDy=0;" parent="98" source="221" target="270" edge="1"><mxGeometry relative="1" as="geometry"><mxPoint x="303" y="142" as="targetPoint"/></mxGeometry></mxCell><mxCell id="433" value="" style="edgeStyle=none;rounded=0;orthogonalLoop=1;jettySize=auto;html=1;fontFamily=Lucida Console;fontSize=16;" parent="98" source="253" target="254" edge="1"><mxGeometry relative="1" as="geometry"/></mxCell><mxCell id="253" value="作成tsv文件上传Graphene-S3" style="rounded=1;whiteSpace=wrap;html=1;fontSize=16;fontFamily=Lucida Console;" parent="98" vertex="1"><mxGeometry x="1584.07" y="147.58" width="139" height="62" as="geometry"/></mxCell><mxCell id="438" value="" style="edgeStyle=orthogonalEdgeStyle;rounded=0;orthogonalLoop=1;jettySize=auto;html=1;fontFamily=Lucida Console;fontSize=16;" parent="98" source="254" target="437" edge="1"><mxGeometry relative="1" as="geometry"/></mxCell><mxCell id="254" value="经过GPG格式加密并作成tsv文件上传Yahoo-文件服务器" style="rounded=1;whiteSpace=wrap;html=1;fontSize=16;fontFamily=Lucida Console;" parent="98" vertex="1"><mxGeometry x="1802.5" y="140.35" width="155.5" height="76.43" as="geometry"/></mxCell><mxCell id="256" value="&lt;div class=&quot;mind-clipboard&quot; style=&quot;font-size: 16px;&quot;&gt;&lt;div style=&quot;font-size: 16px;&quot;&gt;bill&lt;/div&gt;&lt;/div&gt;" style="rounded=1;whiteSpace=wrap;html=1;absoluteArcSize=1;arcSize=14;strokeWidth=2;fontFamily=Lucida Console;fontSize=16;" parent="98" vertex="1"><mxGeometry x="1584.0700000000002" y="558" width="101.87" height="32" as="geometry"/></mxCell><mxCell id="403" value="" style="edgeStyle=orthogonalEdgeStyle;rounded=0;orthogonalLoop=1;jettySize=auto;html=1;fontFamily=Lucida Console;fontSize=13;" parent="98" source="258" target="402" edge="1"><mxGeometry relative="1" as="geometry"/></mxCell><mxCell id="258" value="查询保单详情" style="rounded=1;whiteSpace=wrap;html=1;fontFamily=Lucida Console;fontSize=16;" parent="98" vertex="1"><mxGeometry x="1317.5" y="898" width="125" height="42" as="geometry"/></mxCell><mxCell id="453" value="" style="rounded=0;orthogonalLoop=1;jettySize=auto;html=1;fontFamily=Lucida Console;fontSize=16;dashed=1;" parent="98" source="270" target="452" edge="1"><mxGeometry relative="1" as="geometry"/></mxCell><mxCell id="270" value="&lt;div class=&quot;mind-clipboard&quot; style=&quot;font-size: 16px;&quot;&gt;setDueDateStart([bizTime-1月]的所属月份的1号0点0分)&lt;br&gt;setDueDateEnd([bizTime-1月]的所属月份的月末23点59分)&lt;br&gt;setTransType(EFECTIVE_POLICY(2, &quot;保单承保&quot;),RENEWAL(4, &quot;续期&quot;))&lt;div style=&quot;font-size: 16px;&quot;&gt;setBillStatus(CONFIRMED(2, &quot;已确认&quot;))&lt;br&gt;setArAp(Ar(1, &quot;应收&quot;))&lt;br style=&quot;font-size: 16px;&quot;&gt;&lt;/div&gt;&lt;div style=&quot;font-size: 16px;&quot;&gt;setArapAccountType(YAHOO_WALLET_SJ(135,&lt;br&gt;&quot;ウォレット / Yahoo&quot;))&lt;br style=&quot;font-size: 16px;&quot;&gt;&lt;/div&gt;&lt;div style=&quot;text-align: center; font-size: 16px;&quot;&gt;以上作为条件查询&lt;/div&gt;&lt;div style=&quot;text-align: center; font-size: 16px;&quot;&gt;bill&lt;/div&gt;&lt;/div&gt;" style="rounded=1;whiteSpace=wrap;html=1;absoluteArcSize=1;arcSize=14;strokeWidth=2;fontFamily=Lucida Console;align=left;fontSize=16;" parent="98" vertex="1"><mxGeometry x="290" y="59.15" width="390" height="240.84" as="geometry"/></mxCell><mxCell id="272" value="&lt;div class=&quot;mind-clipboard&quot; style=&quot;font-size: 16px;&quot;&gt;&lt;div class=&quot;mind-clipboard&quot; style=&quot;font-size: 16px;&quot;&gt;每页最大的ID，以每页limit1000为基准，分页查询，按id正序排序，取每页最后一条记录更新maxIdValue，作为下一个分页查询的条件&lt;br style=&quot;font-size: 16px;&quot;&gt;&lt;/div&gt;&lt;/div&gt;" style="rounded=1;whiteSpace=wrap;html=1;absoluteArcSize=1;arcSize=14;strokeWidth=2;fontFamily=Lucida Console;fontSize=16;" parent="98" vertex="1"><mxGeometry x="806" y="124.94999999999995" width="230" height="109.25" as="geometry"/></mxCell><mxCell id="269" style="edgeStyle=orthogonalEdgeStyle;rounded=0;orthogonalLoop=1;jettySize=auto;html=1;entryX=0;entryY=0.5;entryDx=0;entryDy=0;" parent="98" source="270" target="272" edge="1"><mxGeometry relative="1" as="geometry"/></mxCell><mxCell id="431" value="" style="edgeStyle=none;rounded=0;orthogonalLoop=1;jettySize=auto;html=1;fontFamily=Lucida Console;fontSize=16;" parent="98" source="273" target="248" edge="1"><mxGeometry relative="1" as="geometry"/></mxCell><mxCell id="273" value="&lt;div class=&quot;mind-clipboard&quot; style=&quot;font-size: 16px;&quot;&gt;查询获取到list&lt;div style=&quot;font-size: 16px;&quot;&gt;遍历，异步处理每个object&lt;/div&gt;&lt;/div&gt;" style="rounded=1;whiteSpace=wrap;html=1;absoluteArcSize=1;arcSize=14;strokeWidth=2;fontFamily=Lucida Console;fontSize=16;" parent="98" vertex="1"><mxGeometry x="1144" y="134.56999999999994" width="150" height="90" as="geometry"/></mxCell><mxCell id="271" value="" style="edgeStyle=orthogonalEdgeStyle;rounded=0;orthogonalLoop=1;jettySize=auto;html=1;" parent="98" source="272" target="273" edge="1"><mxGeometry relative="1" as="geometry"/></mxCell><mxCell id="274" value="dueDate所属月份=bizTime-1月以及transType=[EFECTIVE_POLICY(2, &quot;保单承保&quot;)]，视为新单，走新单策略" style="text;html=1;strokeColor=none;fillColor=none;align=center;verticalAlign=middle;whiteSpace=wrap;rounded=0;fontSize=16;fontFamily=Lucida Console;" parent="98" vertex="1"><mxGeometry x="1160" y="603" width="290" height="122" as="geometry"/></mxCell><mxCell id="275" value="如果dueDate所属月份=bizTime-1月以及transType=[RENEWAL(4, &quot;续期&quot;)]，那么就认为是续期的单子，走续期的策略" style="text;html=1;strokeColor=none;fillColor=none;align=center;verticalAlign=middle;whiteSpace=wrap;rounded=0;fontSize=16;fontFamily=Lucida Console;" parent="98" vertex="1"><mxGeometry x="1820" y="613" width="330" height="112" as="geometry"/></mxCell><mxCell id="276" value="yahoo_reconcile_record" style="shape=table;startSize=30;container=1;collapsible=0;childLayout=tableLayout;fontStyle=1;align=center;fontFamily=Lucida Console;fontSize=16;" parent="98" vertex="1"><mxGeometry x="320" y="728" width="690" height="1014" as="geometry"/></mxCell><mxCell id="277" value="" style="shape=tableRow;horizontal=0;startSize=0;swimlaneHead=0;swimlaneBody=0;top=0;left=0;bottom=0;right=0;collapsible=0;dropTarget=0;fillColor=none;points=[[0,0.5],[1,0.5]];portConstraint=eastwest;fontFamily=Lucida Console;fontSize=16;" parent="276" vertex="1"><mxGeometry y="30" width="690" height="43" as="geometry"/></mxCell><mxCell id="278" value="&lt;table width=&quot;108&quot; cellspacing=&quot;0&quot; cellpadding=&quot;0&quot; border=&quot;0&quot;&gt;&lt;tbody&gt;&lt;tr style=&quot;height:14.4pt&quot; height=&quot;19&quot;&gt;&lt;td style=&quot;height:14.4pt;width:81pt&quot; width=&quot;108&quot; height=&quot;19&quot;&gt;id&lt;/td&gt;&lt;/tr&gt;&lt;/tbody&gt;&lt;/table&gt;" style="shape=partialRectangle;html=1;whiteSpace=wrap;connectable=0;fillColor=none;top=0;left=0;bottom=0;right=0;overflow=hidden;fontFamily=Lucida Console;fontSize=16;" parent="277" vertex="1"><mxGeometry width="270" height="43" as="geometry"><mxRectangle width="270" height="43" as="alternateBounds"/></mxGeometry></mxCell><mxCell id="279" value="bigint" style="shape=partialRectangle;html=1;whiteSpace=wrap;connectable=0;fillColor=none;top=0;left=0;bottom=0;right=0;overflow=hidden;fontFamily=Lucida Console;fontSize=16;" parent="277" vertex="1"><mxGeometry x="270" width="80" height="43" as="geometry"><mxRectangle width="80" height="43" as="alternateBounds"/></mxGeometry></mxCell><mxCell id="280" value="20" style="shape=partialRectangle;html=1;whiteSpace=wrap;connectable=0;fillColor=none;top=0;left=0;bottom=0;right=0;overflow=hidden;fontFamily=Lucida Console;fontSize=16;" parent="277" vertex="1"><mxGeometry x="350" width="70" height="43" as="geometry"><mxRectangle width="70" height="43" as="alternateBounds"/></mxGeometry></mxCell><mxCell id="293" value="主键" style="shape=partialRectangle;html=1;whiteSpace=wrap;connectable=0;fillColor=none;top=0;left=0;bottom=0;right=0;overflow=hidden;fontFamily=Lucida Console;fontSize=16;" parent="277" vertex="1"><mxGeometry x="420" width="270" height="43" as="geometry"><mxRectangle width="270" height="43" as="alternateBounds"/></mxGeometry></mxCell><mxCell id="281" value="" style="shape=tableRow;horizontal=0;startSize=0;swimlaneHead=0;swimlaneBody=0;top=0;left=0;bottom=0;right=0;collapsible=0;dropTarget=0;fillColor=none;points=[[0,0.5],[1,0.5]];portConstraint=eastwest;fontFamily=Lucida Console;fontSize=16;" parent="276" vertex="1"><mxGeometry y="73" width="690" height="45" as="geometry"/></mxCell><mxCell id="282" value="policy_no" style="shape=partialRectangle;html=1;whiteSpace=wrap;connectable=0;fillColor=none;top=0;left=0;bottom=0;right=0;overflow=hidden;fontFamily=Lucida Console;fontSize=16;" parent="281" vertex="1"><mxGeometry width="270" height="45" as="geometry"><mxRectangle width="270" height="45" as="alternateBounds"/></mxGeometry></mxCell><mxCell id="283" value="varchar" style="shape=partialRectangle;html=1;whiteSpace=wrap;connectable=0;fillColor=none;top=0;left=0;bottom=0;right=0;overflow=hidden;fontFamily=Lucida Console;fontSize=16;" parent="281" vertex="1"><mxGeometry x="270" width="80" height="45" as="geometry"><mxRectangle width="80" height="45" as="alternateBounds"/></mxGeometry></mxCell><mxCell id="284" value="64" style="shape=partialRectangle;html=1;whiteSpace=wrap;connectable=0;fillColor=none;top=0;left=0;bottom=0;right=0;overflow=hidden;fontFamily=Lucida Console;fontSize=16;" parent="281" vertex="1"><mxGeometry x="350" width="70" height="45" as="geometry"><mxRectangle width="70" height="45" as="alternateBounds"/></mxGeometry></mxCell><mxCell id="294" value="保单号" style="shape=partialRectangle;html=1;whiteSpace=wrap;connectable=0;fillColor=none;top=0;left=0;bottom=0;right=0;overflow=hidden;fontFamily=Lucida Console;fontSize=16;" parent="281" vertex="1"><mxGeometry x="420" width="270" height="45" as="geometry"><mxRectangle width="270" height="45" as="alternateBounds"/></mxGeometry></mxCell><mxCell id="285" value="" style="shape=tableRow;horizontal=0;startSize=0;swimlaneHead=0;swimlaneBody=0;top=0;left=0;bottom=0;right=0;collapsible=0;dropTarget=0;fillColor=none;points=[[0,0.5],[1,0.5]];portConstraint=eastwest;fontFamily=Lucida Console;fontSize=16;" parent="276" vertex="1"><mxGeometry y="118" width="690" height="43" as="geometry"/></mxCell><mxCell id="286" value="&lt;table width=&quot;108&quot; cellspacing=&quot;0&quot; cellpadding=&quot;0&quot; border=&quot;0&quot;&gt;&lt;tbody&gt;&lt;tr style=&quot;height:14.4pt&quot; height=&quot;19&quot;&gt;  &lt;td style=&quot;height:14.4pt;width:81pt&quot; width=&quot;108&quot; height=&quot;19&quot;&gt;trans_type&lt;/td&gt;&lt;/tr&gt;&lt;/tbody&gt;&lt;/table&gt;" style="shape=partialRectangle;html=1;whiteSpace=wrap;connectable=0;fillColor=none;top=0;left=0;bottom=0;right=0;overflow=hidden;fontFamily=Lucida Console;fontSize=16;" parent="285" vertex="1"><mxGeometry width="270" height="43" as="geometry"><mxRectangle width="270" height="43" as="alternateBounds"/></mxGeometry></mxCell><mxCell id="287" value="smallint" style="shape=partialRectangle;html=1;whiteSpace=wrap;connectable=0;fillColor=none;top=0;left=0;bottom=0;right=0;overflow=hidden;fontFamily=Lucida Console;fontSize=16;" parent="285" vertex="1"><mxGeometry x="270" width="80" height="43" as="geometry"><mxRectangle width="80" height="43" as="alternateBounds"/></mxGeometry></mxCell><mxCell id="288" value="6" style="shape=partialRectangle;html=1;whiteSpace=wrap;connectable=0;fillColor=none;top=0;left=0;bottom=0;right=0;overflow=hidden;fontFamily=Lucida Console;fontSize=16;" parent="285" vertex="1"><mxGeometry x="350" width="70" height="43" as="geometry"><mxRectangle width="70" height="43" as="alternateBounds"/></mxGeometry></mxCell><mxCell id="295" value="业务类型:首期、续期、退保......" style="shape=partialRectangle;html=1;whiteSpace=wrap;connectable=0;fillColor=none;top=0;left=0;bottom=0;right=0;overflow=hidden;fontFamily=Lucida Console;fontSize=16;" parent="285" vertex="1"><mxGeometry x="420" width="270" height="43" as="geometry"><mxRectangle width="270" height="43" as="alternateBounds"/></mxGeometry></mxCell><mxCell id="296" style="shape=tableRow;horizontal=0;startSize=0;swimlaneHead=0;swimlaneBody=0;top=0;left=0;bottom=0;right=0;collapsible=0;dropTarget=0;fillColor=none;points=[[0,0.5],[1,0.5]];portConstraint=eastwest;fontFamily=Lucida Console;fontSize=16;" parent="276" vertex="1"><mxGeometry y="161" width="690" height="46" as="geometry"/></mxCell><mxCell id="297" value="ar_ap" style="shape=partialRectangle;html=1;whiteSpace=wrap;connectable=0;fillColor=none;top=0;left=0;bottom=0;right=0;overflow=hidden;fontFamily=Lucida Console;fontSize=16;" parent="296" vertex="1"><mxGeometry width="270" height="46" as="geometry"><mxRectangle width="270" height="46" as="alternateBounds"/></mxGeometry></mxCell><mxCell id="298" value="smallint" style="shape=partialRectangle;html=1;whiteSpace=wrap;connectable=0;fillColor=none;top=0;left=0;bottom=0;right=0;overflow=hidden;fontFamily=Lucida Console;fontSize=16;" parent="296" vertex="1"><mxGeometry x="270" width="80" height="46" as="geometry"><mxRectangle width="80" height="46" as="alternateBounds"/></mxGeometry></mxCell><mxCell id="299" value="6" style="shape=partialRectangle;html=1;whiteSpace=wrap;connectable=0;fillColor=none;top=0;left=0;bottom=0;right=0;overflow=hidden;fontFamily=Lucida Console;fontSize=16;" parent="296" vertex="1"><mxGeometry x="350" width="70" height="46" as="geometry"><mxRectangle width="70" height="46" as="alternateBounds"/></mxGeometry></mxCell><mxCell id="300" value="账单收付标识：1-课金 2-返金" style="shape=partialRectangle;html=1;whiteSpace=wrap;connectable=0;fillColor=none;top=0;left=0;bottom=0;right=0;overflow=hidden;fontFamily=Lucida Console;fontSize=16;" parent="296" vertex="1"><mxGeometry x="420" width="270" height="46" as="geometry"><mxRectangle width="270" height="46" as="alternateBounds"/></mxGeometry></mxCell><mxCell id="301" style="shape=tableRow;horizontal=0;startSize=0;swimlaneHead=0;swimlaneBody=0;top=0;left=0;bottom=0;right=0;collapsible=0;dropTarget=0;fillColor=none;points=[[0,0.5],[1,0.5]];portConstraint=eastwest;fontFamily=Lucida Console;fontSize=16;" parent="276" vertex="1"><mxGeometry y="207" width="690" height="45" as="geometry"/></mxCell><mxCell id="302" value="bill_id" style="shape=partialRectangle;html=1;whiteSpace=wrap;connectable=0;fillColor=none;top=0;left=0;bottom=0;right=0;overflow=hidden;fontFamily=Lucida Console;fontSize=16;" parent="301" vertex="1"><mxGeometry width="270" height="45" as="geometry"><mxRectangle width="270" height="45" as="alternateBounds"/></mxGeometry></mxCell><mxCell id="303" value="bigint" style="shape=partialRectangle;html=1;whiteSpace=wrap;connectable=0;fillColor=none;top=0;left=0;bottom=0;right=0;overflow=hidden;fontFamily=Lucida Console;fontSize=16;" parent="301" vertex="1"><mxGeometry x="270" width="80" height="45" as="geometry"><mxRectangle width="80" height="45" as="alternateBounds"/></mxGeometry></mxCell><mxCell id="304" value="20" style="shape=partialRectangle;html=1;whiteSpace=wrap;connectable=0;fillColor=none;top=0;left=0;bottom=0;right=0;overflow=hidden;fontFamily=Lucida Console;fontSize=16;" parent="301" vertex="1"><mxGeometry x="350" width="70" height="45" as="geometry"><mxRectangle width="70" height="45" as="alternateBounds"/></mxGeometry></mxCell><mxCell id="305" value="账单ID" style="shape=partialRectangle;html=1;whiteSpace=wrap;connectable=0;fillColor=none;top=0;left=0;bottom=0;right=0;overflow=hidden;fontFamily=Lucida Console;fontSize=16;" parent="301" vertex="1"><mxGeometry x="420" width="270" height="45" as="geometry"><mxRectangle width="270" height="45" as="alternateBounds"/></mxGeometry></mxCell><mxCell id="306" style="shape=tableRow;horizontal=0;startSize=0;swimlaneHead=0;swimlaneBody=0;top=0;left=0;bottom=0;right=0;collapsible=0;dropTarget=0;fillColor=none;points=[[0,0.5],[1,0.5]];portConstraint=eastwest;fontFamily=Lucida Console;fontSize=16;" parent="276" vertex="1"><mxGeometry y="252" width="690" height="44" as="geometry"/></mxCell><mxCell id="307" value="yahoo_property_no" style="shape=partialRectangle;html=1;whiteSpace=wrap;connectable=0;fillColor=none;top=0;left=0;bottom=0;right=0;overflow=hidden;fontFamily=Lucida Console;fontSize=16;" parent="306" vertex="1"><mxGeometry width="270" height="44" as="geometry"><mxRectangle width="270" height="44" as="alternateBounds"/></mxGeometry></mxCell><mxCell id="308" value="varchar" style="shape=partialRectangle;html=1;whiteSpace=wrap;connectable=0;fillColor=none;top=0;left=0;bottom=0;right=0;overflow=hidden;fontFamily=Lucida Console;fontSize=16;" parent="306" vertex="1"><mxGeometry x="270" width="80" height="44" as="geometry"><mxRectangle width="80" height="44" as="alternateBounds"/></mxGeometry></mxCell><mxCell id="309" value="20" style="shape=partialRectangle;html=1;whiteSpace=wrap;connectable=0;fillColor=none;top=0;left=0;bottom=0;right=0;overflow=hidden;fontFamily=Lucida Console;fontSize=16;" parent="306" vertex="1"><mxGeometry x="350" width="70" height="44" as="geometry"><mxRectangle width="70" height="44" as="alternateBounds"/></mxGeometry></mxCell><mxCell id="310" value="雅虎财产id" style="shape=partialRectangle;html=1;whiteSpace=wrap;connectable=0;fillColor=none;top=0;left=0;bottom=0;right=0;overflow=hidden;fontFamily=Lucida Console;fontSize=16;" parent="306" vertex="1"><mxGeometry x="420" width="270" height="44" as="geometry"><mxRectangle width="270" height="44" as="alternateBounds"/></mxGeometry></mxCell><mxCell id="311" style="shape=tableRow;horizontal=0;startSize=0;swimlaneHead=0;swimlaneBody=0;top=0;left=0;bottom=0;right=0;collapsible=0;dropTarget=0;fillColor=none;points=[[0,0.5],[1,0.5]];portConstraint=eastwest;fontFamily=Lucida Console;fontSize=16;" parent="276" vertex="1"><mxGeometry y="296" width="690" height="45" as="geometry"/></mxCell><mxCell id="312" value="yahoo_goods_no" style="shape=partialRectangle;html=1;whiteSpace=wrap;connectable=0;fillColor=none;top=0;left=0;bottom=0;right=0;overflow=hidden;fontFamily=Lucida Console;fontSize=16;" parent="311" vertex="1"><mxGeometry width="270" height="45" as="geometry"><mxRectangle width="270" height="45" as="alternateBounds"/></mxGeometry></mxCell><mxCell id="313" value="varchar" style="shape=partialRectangle;html=1;whiteSpace=wrap;connectable=0;fillColor=none;top=0;left=0;bottom=0;right=0;overflow=hidden;fontFamily=Lucida Console;fontSize=16;" parent="311" vertex="1"><mxGeometry x="270" width="80" height="45" as="geometry"><mxRectangle width="80" height="45" as="alternateBounds"/></mxGeometry></mxCell><mxCell id="314" value="20" style="shape=partialRectangle;html=1;whiteSpace=wrap;connectable=0;fillColor=none;top=0;left=0;bottom=0;right=0;overflow=hidden;fontFamily=Lucida Console;fontSize=16;" parent="311" vertex="1"><mxGeometry x="350" width="70" height="45" as="geometry"><mxRectangle width="70" height="45" as="alternateBounds"/></mxGeometry></mxCell><mxCell id="315" value="雅虎商品id" style="shape=partialRectangle;html=1;whiteSpace=wrap;connectable=0;fillColor=none;top=0;left=0;bottom=0;right=0;overflow=hidden;fontFamily=Lucida Console;fontSize=16;" parent="311" vertex="1"><mxGeometry x="420" width="270" height="45" as="geometry"><mxRectangle width="270" height="45" as="alternateBounds"/></mxGeometry></mxCell><mxCell id="316" style="shape=tableRow;horizontal=0;startSize=0;swimlaneHead=0;swimlaneBody=0;top=0;left=0;bottom=0;right=0;collapsible=0;dropTarget=0;fillColor=none;points=[[0,0.5],[1,0.5]];portConstraint=eastwest;fontFamily=Lucida Console;fontSize=16;" parent="276" vertex="1"><mxGeometry y="341" width="690" height="44" as="geometry"/></mxCell><mxCell id="317" value="purchase_date" style="shape=partialRectangle;html=1;whiteSpace=wrap;connectable=0;fillColor=none;top=0;left=0;bottom=0;right=0;overflow=hidden;fontFamily=Lucida Console;fontSize=16;" parent="316" vertex="1"><mxGeometry width="270" height="44" as="geometry"><mxRectangle width="270" height="44" as="alternateBounds"/></mxGeometry></mxCell><mxCell id="318" value="date" style="shape=partialRectangle;html=1;whiteSpace=wrap;connectable=0;fillColor=none;top=0;left=0;bottom=0;right=0;overflow=hidden;fontFamily=Lucida Console;fontSize=16;" parent="316" vertex="1"><mxGeometry x="270" width="80" height="44" as="geometry"><mxRectangle width="80" height="44" as="alternateBounds"/></mxGeometry></mxCell><mxCell id="319" style="shape=partialRectangle;html=1;whiteSpace=wrap;connectable=0;fillColor=none;top=0;left=0;bottom=0;right=0;overflow=hidden;fontFamily=Lucida Console;fontSize=16;" parent="316" vertex="1"><mxGeometry x="350" width="70" height="44" as="geometry"><mxRectangle width="70" height="44" as="alternateBounds"/></mxGeometry></mxCell><mxCell id="320" value="保单购入日" style="shape=partialRectangle;html=1;whiteSpace=wrap;connectable=0;fillColor=none;top=0;left=0;bottom=0;right=0;overflow=hidden;fontFamily=Lucida Console;fontSize=16;" parent="316" vertex="1"><mxGeometry x="420" width="270" height="44" as="geometry"><mxRectangle width="270" height="44" as="alternateBounds"/></mxGeometry></mxCell><mxCell id="321" style="shape=tableRow;horizontal=0;startSize=0;swimlaneHead=0;swimlaneBody=0;top=0;left=0;bottom=0;right=0;collapsible=0;dropTarget=0;fillColor=none;points=[[0,0.5],[1,0.5]];portConstraint=eastwest;fontFamily=Lucida Console;fontSize=16;" parent="276" vertex="1"><mxGeometry y="385" width="690" height="46" as="geometry"/></mxCell><mxCell id="322" value="start_date" style="shape=partialRectangle;html=1;whiteSpace=wrap;connectable=0;fillColor=none;top=0;left=0;bottom=0;right=0;overflow=hidden;fontFamily=Lucida Console;fontSize=16;" parent="321" vertex="1"><mxGeometry width="270" height="46" as="geometry"><mxRectangle width="270" height="46" as="alternateBounds"/></mxGeometry></mxCell><mxCell id="323" value="date" style="shape=partialRectangle;html=1;whiteSpace=wrap;connectable=0;fillColor=none;top=0;left=0;bottom=0;right=0;overflow=hidden;fontFamily=Lucida Console;fontSize=16;" parent="321" vertex="1"><mxGeometry x="270" width="80" height="46" as="geometry"><mxRectangle width="80" height="46" as="alternateBounds"/></mxGeometry></mxCell><mxCell id="324" style="shape=partialRectangle;html=1;whiteSpace=wrap;connectable=0;fillColor=none;top=0;left=0;bottom=0;right=0;overflow=hidden;fontFamily=Lucida Console;fontSize=16;" parent="321" vertex="1"><mxGeometry x="350" width="70" height="46" as="geometry"><mxRectangle width="70" height="46" as="alternateBounds"/></mxGeometry></mxCell><mxCell id="325" value="课金/返金数据所属月份的开始日" style="shape=partialRectangle;html=1;whiteSpace=wrap;connectable=0;fillColor=none;top=0;left=0;bottom=0;right=0;overflow=hidden;fontFamily=Lucida Console;fontSize=16;" parent="321" vertex="1"><mxGeometry x="420" width="270" height="46" as="geometry"><mxRectangle width="270" height="46" as="alternateBounds"/></mxGeometry></mxCell><mxCell id="326" style="shape=tableRow;horizontal=0;startSize=0;swimlaneHead=0;swimlaneBody=0;top=0;left=0;bottom=0;right=0;collapsible=0;dropTarget=0;fillColor=none;points=[[0,0.5],[1,0.5]];portConstraint=eastwest;fontFamily=Lucida Console;fontSize=16;" parent="276" vertex="1"><mxGeometry y="431" width="690" height="44" as="geometry"/></mxCell><mxCell id="327" value="end_date" style="shape=partialRectangle;html=1;whiteSpace=wrap;connectable=0;fillColor=none;top=0;left=0;bottom=0;right=0;overflow=hidden;fontFamily=Lucida Console;fontSize=16;" parent="326" vertex="1"><mxGeometry width="270" height="44" as="geometry"><mxRectangle width="270" height="44" as="alternateBounds"/></mxGeometry></mxCell><mxCell id="328" value="date" style="shape=partialRectangle;html=1;whiteSpace=wrap;connectable=0;fillColor=none;top=0;left=0;bottom=0;right=0;overflow=hidden;fontFamily=Lucida Console;fontSize=16;" parent="326" vertex="1"><mxGeometry x="270" width="80" height="44" as="geometry"><mxRectangle width="80" height="44" as="alternateBounds"/></mxGeometry></mxCell><mxCell id="329" style="shape=partialRectangle;html=1;whiteSpace=wrap;connectable=0;fillColor=none;top=0;left=0;bottom=0;right=0;overflow=hidden;fontFamily=Lucida Console;fontSize=16;" parent="326" vertex="1"><mxGeometry x="350" width="70" height="44" as="geometry"><mxRectangle width="70" height="44" as="alternateBounds"/></mxGeometry></mxCell><mxCell id="330" value="课金/返金数据所属月份的结束日" style="shape=partialRectangle;html=1;whiteSpace=wrap;connectable=0;fillColor=none;top=0;left=0;bottom=0;right=0;overflow=hidden;fontFamily=Lucida Console;fontSize=16;" parent="326" vertex="1"><mxGeometry x="420" width="270" height="44" as="geometry"><mxRectangle width="270" height="44" as="alternateBounds"/></mxGeometry></mxCell><mxCell id="331" style="shape=tableRow;horizontal=0;startSize=0;swimlaneHead=0;swimlaneBody=0;top=0;left=0;bottom=0;right=0;collapsible=0;dropTarget=0;fillColor=none;points=[[0,0.5],[1,0.5]];portConstraint=eastwest;fontFamily=Lucida Console;fontSize=16;" parent="276" vertex="1"><mxGeometry y="475" width="690" height="44" as="geometry"/></mxCell><mxCell id="332" value="premium" style="shape=partialRectangle;html=1;whiteSpace=wrap;connectable=0;fillColor=none;top=0;left=0;bottom=0;right=0;overflow=hidden;fontFamily=Lucida Console;fontSize=16;" parent="331" vertex="1"><mxGeometry width="270" height="44" as="geometry"><mxRectangle width="270" height="44" as="alternateBounds"/></mxGeometry></mxCell><mxCell id="333" value="varchar" style="shape=partialRectangle;html=1;whiteSpace=wrap;connectable=0;fillColor=none;top=0;left=0;bottom=0;right=0;overflow=hidden;fontFamily=Lucida Console;fontSize=16;" parent="331" vertex="1"><mxGeometry x="270" width="80" height="44" as="geometry"><mxRectangle width="80" height="44" as="alternateBounds"/></mxGeometry></mxCell><mxCell id="334" value="50" style="shape=partialRectangle;html=1;whiteSpace=wrap;connectable=0;fillColor=none;top=0;left=0;bottom=0;right=0;overflow=hidden;fontFamily=Lucida Console;fontSize=16;" parent="331" vertex="1"><mxGeometry x="350" width="70" height="44" as="geometry"><mxRectangle width="70" height="44" as="alternateBounds"/></mxGeometry></mxCell><mxCell id="335" value="保费" style="shape=partialRectangle;html=1;whiteSpace=wrap;connectable=0;fillColor=none;top=0;left=0;bottom=0;right=0;overflow=hidden;fontFamily=Lucida Console;fontSize=16;" parent="331" vertex="1"><mxGeometry x="420" width="270" height="44" as="geometry"><mxRectangle width="270" height="44" as="alternateBounds"/></mxGeometry></mxCell><mxCell id="336" style="shape=tableRow;horizontal=0;startSize=0;swimlaneHead=0;swimlaneBody=0;top=0;left=0;bottom=0;right=0;collapsible=0;dropTarget=0;fillColor=none;points=[[0,0.5],[1,0.5]];portConstraint=eastwest;fontFamily=Lucida Console;fontSize=16;" parent="276" vertex="1"><mxGeometry y="519" width="690" height="45" as="geometry"/></mxCell><mxCell id="337" value="tax_premium" style="shape=partialRectangle;html=1;whiteSpace=wrap;connectable=0;fillColor=none;top=0;left=0;bottom=0;right=0;overflow=hidden;fontFamily=Lucida Console;fontSize=16;" parent="336" vertex="1"><mxGeometry width="270" height="45" as="geometry"><mxRectangle width="270" height="45" as="alternateBounds"/></mxGeometry></mxCell><mxCell id="338" value="varchar" style="shape=partialRectangle;html=1;whiteSpace=wrap;connectable=0;fillColor=none;top=0;left=0;bottom=0;right=0;overflow=hidden;fontFamily=Lucida Console;fontSize=16;" parent="336" vertex="1"><mxGeometry x="270" width="80" height="45" as="geometry"><mxRectangle width="80" height="45" as="alternateBounds"/></mxGeometry></mxCell><mxCell id="339" value="50" style="shape=partialRectangle;html=1;whiteSpace=wrap;connectable=0;fillColor=none;top=0;left=0;bottom=0;right=0;overflow=hidden;fontFamily=Lucida Console;fontSize=16;" parent="336" vertex="1"><mxGeometry x="350" width="70" height="45" as="geometry"><mxRectangle width="70" height="45" as="alternateBounds"/></mxGeometry></mxCell><mxCell id="340" value="税款" style="shape=partialRectangle;html=1;whiteSpace=wrap;connectable=0;fillColor=none;top=0;left=0;bottom=0;right=0;overflow=hidden;fontFamily=Lucida Console;fontSize=16;" parent="336" vertex="1"><mxGeometry x="420" width="270" height="45" as="geometry"><mxRectangle width="270" height="45" as="alternateBounds"/></mxGeometry></mxCell><mxCell id="341" style="shape=tableRow;horizontal=0;startSize=0;swimlaneHead=0;swimlaneBody=0;top=0;left=0;bottom=0;right=0;collapsible=0;dropTarget=0;fillColor=none;points=[[0,0.5],[1,0.5]];portConstraint=eastwest;fontFamily=Lucida Console;fontSize=16;" parent="276" vertex="1"><mxGeometry y="564" width="690" height="45" as="geometry"/></mxCell><mxCell id="342" value="channel_user_no" style="shape=partialRectangle;html=1;whiteSpace=wrap;connectable=0;fillColor=none;top=0;left=0;bottom=0;right=0;overflow=hidden;fontFamily=Lucida Console;fontSize=16;" parent="341" vertex="1"><mxGeometry width="270" height="45" as="geometry"><mxRectangle width="270" height="45" as="alternateBounds"/></mxGeometry></mxCell><mxCell id="343" value="varchar" style="shape=partialRectangle;html=1;whiteSpace=wrap;connectable=0;fillColor=none;top=0;left=0;bottom=0;right=0;overflow=hidden;fontFamily=Lucida Console;fontSize=16;" parent="341" vertex="1"><mxGeometry x="270" width="80" height="45" as="geometry"><mxRectangle width="80" height="45" as="alternateBounds"/></mxGeometry></mxCell><mxCell id="344" value="100" style="shape=partialRectangle;html=1;whiteSpace=wrap;connectable=0;fillColor=none;top=0;left=0;bottom=0;right=0;overflow=hidden;fontFamily=Lucida Console;fontSize=16;" parent="341" vertex="1"><mxGeometry x="350" width="70" height="45" as="geometry"><mxRectangle width="70" height="45" as="alternateBounds"/></mxGeometry></mxCell><mxCell id="345" value="渠道用户号" style="shape=partialRectangle;html=1;whiteSpace=wrap;connectable=0;fillColor=none;top=0;left=0;bottom=0;right=0;overflow=hidden;fontFamily=Lucida Console;fontSize=16;" parent="341" vertex="1"><mxGeometry x="420" width="270" height="45" as="geometry"><mxRectangle width="270" height="45" as="alternateBounds"/></mxGeometry></mxCell><mxCell id="396" style="shape=tableRow;horizontal=0;startSize=0;swimlaneHead=0;swimlaneBody=0;top=0;left=0;bottom=0;right=0;collapsible=0;dropTarget=0;fillColor=none;points=[[0,0.5],[1,0.5]];portConstraint=eastwest;fontFamily=Lucida Console;fontSize=16;" parent="276" vertex="1"><mxGeometry y="609" width="690" height="45" as="geometry"/></mxCell><mxCell id="397" value="business_transaction_no" style="shape=partialRectangle;html=1;whiteSpace=wrap;connectable=0;fillColor=none;top=0;left=0;bottom=0;right=0;overflow=hidden;fontFamily=Lucida Console;fontSize=16;" parent="396" vertex="1"><mxGeometry width="270" height="45" as="geometry"><mxRectangle width="270" height="45" as="alternateBounds"/></mxGeometry></mxCell><mxCell id="398" value="varchar" style="shape=partialRectangle;html=1;whiteSpace=wrap;connectable=0;fillColor=none;top=0;left=0;bottom=0;right=0;overflow=hidden;fontFamily=Lucida Console;fontSize=16;" parent="396" vertex="1"><mxGeometry x="270" width="80" height="45" as="geometry"><mxRectangle width="80" height="45" as="alternateBounds"/></mxGeometry></mxCell><mxCell id="399" value="128" style="shape=partialRectangle;html=1;whiteSpace=wrap;connectable=0;fillColor=none;top=0;left=0;bottom=0;right=0;overflow=hidden;fontFamily=Lucida Console;fontSize=16;" parent="396" vertex="1"><mxGeometry x="350" width="70" height="45" as="geometry"><mxRectangle width="70" height="45" as="alternateBounds"/></mxGeometry></mxCell><mxCell id="400" value="明细ID" style="shape=partialRectangle;html=1;whiteSpace=wrap;connectable=0;fillColor=none;top=0;left=0;bottom=0;right=0;overflow=hidden;fontFamily=Lucida Console;fontSize=16;" parent="396" vertex="1"><mxGeometry x="420" width="270" height="45" as="geometry"><mxRectangle width="270" height="45" as="alternateBounds"/></mxGeometry></mxCell><mxCell id="391" style="shape=tableRow;horizontal=0;startSize=0;swimlaneHead=0;swimlaneBody=0;top=0;left=0;bottom=0;right=0;collapsible=0;dropTarget=0;fillColor=none;points=[[0,0.5],[1,0.5]];portConstraint=eastwest;fontFamily=Lucida Console;fontSize=16;" parent="276" vertex="1"><mxGeometry y="654" width="690" height="45" as="geometry"/></mxCell><mxCell id="392" value="rel_business_transaction_no" style="shape=partialRectangle;html=1;whiteSpace=wrap;connectable=0;fillColor=none;top=0;left=0;bottom=0;right=0;overflow=hidden;fontFamily=Lucida Console;fontSize=16;" parent="391" vertex="1"><mxGeometry width="270" height="45" as="geometry"><mxRectangle width="270" height="45" as="alternateBounds"/></mxGeometry></mxCell><mxCell id="393" value="varchar" style="shape=partialRectangle;html=1;whiteSpace=wrap;connectable=0;fillColor=none;top=0;left=0;bottom=0;right=0;overflow=hidden;fontFamily=Lucida Console;fontSize=16;" parent="391" vertex="1"><mxGeometry x="270" width="80" height="45" as="geometry"><mxRectangle width="80" height="45" as="alternateBounds"/></mxGeometry></mxCell><mxCell id="394" value="128" style="shape=partialRectangle;html=1;whiteSpace=wrap;connectable=0;fillColor=none;top=0;left=0;bottom=0;right=0;overflow=hidden;fontFamily=Lucida Console;fontSize=16;" parent="391" vertex="1"><mxGeometry x="350" width="70" height="45" as="geometry"><mxRectangle width="70" height="45" as="alternateBounds"/></mxGeometry></mxCell><mxCell id="395" value="关联明细ID" style="shape=partialRectangle;html=1;whiteSpace=wrap;connectable=0;fillColor=none;top=0;left=0;bottom=0;right=0;overflow=hidden;fontFamily=Lucida Console;fontSize=16;" parent="391" vertex="1"><mxGeometry x="420" width="270" height="45" as="geometry"><mxRectangle width="270" height="45" as="alternateBounds"/></mxGeometry></mxCell><mxCell id="447" style="shape=tableRow;horizontal=0;startSize=0;swimlaneHead=0;swimlaneBody=0;top=0;left=0;bottom=0;right=0;collapsible=0;dropTarget=0;fillColor=none;points=[[0,0.5],[1,0.5]];portConstraint=eastwest;fontFamily=Lucida Console;fontSize=16;" parent="276" vertex="1"><mxGeometry y="699" width="690" height="45" as="geometry"/></mxCell><mxCell id="448" value="generate_date" style="shape=partialRectangle;html=1;whiteSpace=wrap;connectable=0;fillColor=none;top=0;left=0;bottom=0;right=0;overflow=hidden;fontFamily=Lucida Console;fontSize=16;" parent="447" vertex="1"><mxGeometry width="270" height="45" as="geometry"><mxRectangle width="270" height="45" as="alternateBounds"/></mxGeometry></mxCell><mxCell id="449" value="datetime" style="shape=partialRectangle;html=1;whiteSpace=wrap;connectable=0;fillColor=none;top=0;left=0;bottom=0;right=0;overflow=hidden;fontFamily=Lucida Console;fontSize=16;" parent="447" vertex="1"><mxGeometry x="270" width="80" height="45" as="geometry"><mxRectangle width="80" height="45" as="alternateBounds"/></mxGeometry></mxCell><mxCell id="450" style="shape=partialRectangle;html=1;whiteSpace=wrap;connectable=0;fillColor=none;top=0;left=0;bottom=0;right=0;overflow=hidden;fontFamily=Lucida Console;fontSize=16;" parent="447" vertex="1"><mxGeometry x="350" width="70" height="45" as="geometry"><mxRectangle width="70" height="45" as="alternateBounds"/></mxGeometry></mxCell><mxCell id="451" value="作成日期" style="shape=partialRectangle;html=1;whiteSpace=wrap;connectable=0;fillColor=none;top=0;left=0;bottom=0;right=0;overflow=hidden;fontFamily=Lucida Console;fontSize=16;" parent="447" vertex="1"><mxGeometry x="420" width="270" height="45" as="geometry"><mxRectangle width="270" height="45" as="alternateBounds"/></mxGeometry></mxCell><mxCell id="386" style="shape=tableRow;horizontal=0;startSize=0;swimlaneHead=0;swimlaneBody=0;top=0;left=0;bottom=0;right=0;collapsible=0;dropTarget=0;fillColor=none;points=[[0,0.5],[1,0.5]];portConstraint=eastwest;fontFamily=Lucida Console;fontSize=16;" parent="276" vertex="1"><mxGeometry y="744" width="690" height="45" as="geometry"/></mxCell><mxCell id="387" value="sync_flag" style="shape=partialRectangle;html=1;whiteSpace=wrap;connectable=0;fillColor=none;top=0;left=0;bottom=0;right=0;overflow=hidden;fontFamily=Lucida Console;fontSize=16;" parent="386" vertex="1"><mxGeometry width="270" height="45" as="geometry"><mxRectangle width="270" height="45" as="alternateBounds"/></mxGeometry></mxCell><mxCell id="388" value="smallint" style="shape=partialRectangle;html=1;whiteSpace=wrap;connectable=0;fillColor=none;top=0;left=0;bottom=0;right=0;overflow=hidden;fontFamily=Lucida Console;fontSize=16;" parent="386" vertex="1"><mxGeometry x="270" width="80" height="45" as="geometry"><mxRectangle width="80" height="45" as="alternateBounds"/></mxGeometry></mxCell><mxCell id="389" value="6" style="shape=partialRectangle;html=1;whiteSpace=wrap;connectable=0;fillColor=none;top=0;left=0;bottom=0;right=0;overflow=hidden;fontFamily=Lucida Console;fontSize=16;" parent="386" vertex="1"><mxGeometry x="350" width="70" height="45" as="geometry"><mxRectangle width="70" height="45" as="alternateBounds"/></mxGeometry></mxCell><mxCell id="390" value="0未同步1同步成功2同步失败" style="shape=partialRectangle;html=1;whiteSpace=wrap;connectable=0;fillColor=none;top=0;left=0;bottom=0;right=0;overflow=hidden;fontFamily=Lucida Console;fontSize=16;" parent="386" vertex="1"><mxGeometry x="420" width="270" height="45" as="geometry"><mxRectangle width="270" height="45" as="alternateBounds"/></mxGeometry></mxCell><mxCell id="381" style="shape=tableRow;horizontal=0;startSize=0;swimlaneHead=0;swimlaneBody=0;top=0;left=0;bottom=0;right=0;collapsible=0;dropTarget=0;fillColor=none;points=[[0,0.5],[1,0.5]];portConstraint=eastwest;fontFamily=Lucida Console;fontSize=16;" parent="276" vertex="1"><mxGeometry y="789" width="690" height="45" as="geometry"/></mxCell><mxCell id="382" value="is_deleted" style="shape=partialRectangle;html=1;whiteSpace=wrap;connectable=0;fillColor=none;top=0;left=0;bottom=0;right=0;overflow=hidden;fontFamily=Lucida Console;fontSize=16;" parent="381" vertex="1"><mxGeometry width="270" height="45" as="geometry"><mxRectangle width="270" height="45" as="alternateBounds"/></mxGeometry></mxCell><mxCell id="383" value="char" style="shape=partialRectangle;html=1;whiteSpace=wrap;connectable=0;fillColor=none;top=0;left=0;bottom=0;right=0;overflow=hidden;fontFamily=Lucida Console;fontSize=16;" parent="381" vertex="1"><mxGeometry x="270" width="80" height="45" as="geometry"><mxRectangle width="80" height="45" as="alternateBounds"/></mxGeometry></mxCell><mxCell id="384" value="1" style="shape=partialRectangle;html=1;whiteSpace=wrap;connectable=0;fillColor=none;top=0;left=0;bottom=0;right=0;overflow=hidden;fontFamily=Lucida Console;fontSize=16;" parent="381" vertex="1"><mxGeometry x="350" width="70" height="45" as="geometry"><mxRectangle width="70" height="45" as="alternateBounds"/></mxGeometry></mxCell><mxCell id="385" value="是否删除 Y：是 N：否" style="shape=partialRectangle;html=1;whiteSpace=wrap;connectable=0;fillColor=none;top=0;left=0;bottom=0;right=0;overflow=hidden;fontFamily=Lucida Console;fontSize=16;" parent="381" vertex="1"><mxGeometry x="420" width="270" height="45" as="geometry"><mxRectangle width="270" height="45" as="alternateBounds"/></mxGeometry></mxCell><mxCell id="376" style="shape=tableRow;horizontal=0;startSize=0;swimlaneHead=0;swimlaneBody=0;top=0;left=0;bottom=0;right=0;collapsible=0;dropTarget=0;fillColor=none;points=[[0,0.5],[1,0.5]];portConstraint=eastwest;fontFamily=Lucida Console;fontSize=16;" parent="276" vertex="1"><mxGeometry y="834" width="690" height="45" as="geometry"/></mxCell><mxCell id="377" value="gmt_created" style="shape=partialRectangle;html=1;whiteSpace=wrap;connectable=0;fillColor=none;top=0;left=0;bottom=0;right=0;overflow=hidden;fontFamily=Lucida Console;fontSize=16;" parent="376" vertex="1"><mxGeometry width="270" height="45" as="geometry"><mxRectangle width="270" height="45" as="alternateBounds"/></mxGeometry></mxCell><mxCell id="378" value="datetime" style="shape=partialRectangle;html=1;whiteSpace=wrap;connectable=0;fillColor=none;top=0;left=0;bottom=0;right=0;overflow=hidden;fontFamily=Lucida Console;fontSize=16;" parent="376" vertex="1"><mxGeometry x="270" width="80" height="45" as="geometry"><mxRectangle width="80" height="45" as="alternateBounds"/></mxGeometry></mxCell><mxCell id="379" style="shape=partialRectangle;html=1;whiteSpace=wrap;connectable=0;fillColor=none;top=0;left=0;bottom=0;right=0;overflow=hidden;fontFamily=Lucida Console;fontSize=16;" parent="376" vertex="1"><mxGeometry x="350" width="70" height="45" as="geometry"><mxRectangle width="70" height="45" as="alternateBounds"/></mxGeometry></mxCell><mxCell id="380" value="创建时间" style="shape=partialRectangle;html=1;whiteSpace=wrap;connectable=0;fillColor=none;top=0;left=0;bottom=0;right=0;overflow=hidden;fontFamily=Lucida Console;fontSize=16;" parent="376" vertex="1"><mxGeometry x="420" width="270" height="45" as="geometry"><mxRectangle width="270" height="45" as="alternateBounds"/></mxGeometry></mxCell><mxCell id="371" style="shape=tableRow;horizontal=0;startSize=0;swimlaneHead=0;swimlaneBody=0;top=0;left=0;bottom=0;right=0;collapsible=0;dropTarget=0;fillColor=none;points=[[0,0.5],[1,0.5]];portConstraint=eastwest;fontFamily=Lucida Console;fontSize=16;" parent="276" vertex="1"><mxGeometry y="879" width="690" height="45" as="geometry"/></mxCell><mxCell id="372" value="creator" style="shape=partialRectangle;html=1;whiteSpace=wrap;connectable=0;fillColor=none;top=0;left=0;bottom=0;right=0;overflow=hidden;fontFamily=Lucida Console;fontSize=16;" parent="371" vertex="1"><mxGeometry width="270" height="45" as="geometry"><mxRectangle width="270" height="45" as="alternateBounds"/></mxGeometry></mxCell><mxCell id="373" value="varchar" style="shape=partialRectangle;html=1;whiteSpace=wrap;connectable=0;fillColor=none;top=0;left=0;bottom=0;right=0;overflow=hidden;fontFamily=Lucida Console;fontSize=16;" parent="371" vertex="1"><mxGeometry x="270" width="80" height="45" as="geometry"><mxRectangle width="80" height="45" as="alternateBounds"/></mxGeometry></mxCell><mxCell id="374" value="32" style="shape=partialRectangle;html=1;whiteSpace=wrap;connectable=0;fillColor=none;top=0;left=0;bottom=0;right=0;overflow=hidden;fontFamily=Lucida Console;fontSize=16;" parent="371" vertex="1"><mxGeometry x="350" width="70" height="45" as="geometry"><mxRectangle width="70" height="45" as="alternateBounds"/></mxGeometry></mxCell><mxCell id="375" value="创建人" style="shape=partialRectangle;html=1;whiteSpace=wrap;connectable=0;fillColor=none;top=0;left=0;bottom=0;right=0;overflow=hidden;fontFamily=Lucida Console;fontSize=16;" parent="371" vertex="1"><mxGeometry x="420" width="270" height="45" as="geometry"><mxRectangle width="270" height="45" as="alternateBounds"/></mxGeometry></mxCell><mxCell id="366" style="shape=tableRow;horizontal=0;startSize=0;swimlaneHead=0;swimlaneBody=0;top=0;left=0;bottom=0;right=0;collapsible=0;dropTarget=0;fillColor=none;points=[[0,0.5],[1,0.5]];portConstraint=eastwest;fontFamily=Lucida Console;fontSize=16;" parent="276" vertex="1"><mxGeometry y="924" width="690" height="45" as="geometry"/></mxCell><mxCell id="367" value="gmt_modified" style="shape=partialRectangle;html=1;whiteSpace=wrap;connectable=0;fillColor=none;top=0;left=0;bottom=0;right=0;overflow=hidden;fontFamily=Lucida Console;fontSize=16;" parent="366" vertex="1"><mxGeometry width="270" height="45" as="geometry"><mxRectangle width="270" height="45" as="alternateBounds"/></mxGeometry></mxCell><mxCell id="368" value="datetime" style="shape=partialRectangle;html=1;whiteSpace=wrap;connectable=0;fillColor=none;top=0;left=0;bottom=0;right=0;overflow=hidden;fontFamily=Lucida Console;fontSize=16;" parent="366" vertex="1"><mxGeometry x="270" width="80" height="45" as="geometry"><mxRectangle width="80" height="45" as="alternateBounds"/></mxGeometry></mxCell><mxCell id="369" style="shape=partialRectangle;html=1;whiteSpace=wrap;connectable=0;fillColor=none;top=0;left=0;bottom=0;right=0;overflow=hidden;fontFamily=Lucida Console;fontSize=16;" parent="366" vertex="1"><mxGeometry x="350" width="70" height="45" as="geometry"><mxRectangle width="70" height="45" as="alternateBounds"/></mxGeometry></mxCell><mxCell id="370" value="更新时间" style="shape=partialRectangle;html=1;whiteSpace=wrap;connectable=0;fillColor=none;top=0;left=0;bottom=0;right=0;overflow=hidden;fontFamily=Lucida Console;fontSize=16;" parent="366" vertex="1"><mxGeometry x="420" width="270" height="45" as="geometry"><mxRectangle width="270" height="45" as="alternateBounds"/></mxGeometry></mxCell><mxCell id="361" style="shape=tableRow;horizontal=0;startSize=0;swimlaneHead=0;swimlaneBody=0;top=0;left=0;bottom=0;right=0;collapsible=0;dropTarget=0;fillColor=none;points=[[0,0.5],[1,0.5]];portConstraint=eastwest;fontFamily=Lucida Console;fontSize=16;" parent="276" vertex="1"><mxGeometry y="969" width="690" height="45" as="geometry"/></mxCell><mxCell id="362" value="modifier" style="shape=partialRectangle;html=1;whiteSpace=wrap;connectable=0;fillColor=none;top=0;left=0;bottom=0;right=0;overflow=hidden;fontFamily=Lucida Console;fontSize=16;" parent="361" vertex="1"><mxGeometry width="270" height="45" as="geometry"><mxRectangle width="270" height="45" as="alternateBounds"/></mxGeometry></mxCell><mxCell id="363" value="varchar" style="shape=partialRectangle;html=1;whiteSpace=wrap;connectable=0;fillColor=none;top=0;left=0;bottom=0;right=0;overflow=hidden;fontFamily=Lucida Console;fontSize=16;" parent="361" vertex="1"><mxGeometry x="270" width="80" height="45" as="geometry"><mxRectangle width="80" height="45" as="alternateBounds"/></mxGeometry></mxCell><mxCell id="364" value="32" style="shape=partialRectangle;html=1;whiteSpace=wrap;connectable=0;fillColor=none;top=0;left=0;bottom=0;right=0;overflow=hidden;fontFamily=Lucida Console;fontSize=16;" parent="361" vertex="1"><mxGeometry x="350" width="70" height="45" as="geometry"><mxRectangle width="70" height="45" as="alternateBounds"/></mxGeometry></mxCell><mxCell id="365" value="更新人" style="shape=partialRectangle;html=1;whiteSpace=wrap;connectable=0;fillColor=none;top=0;left=0;bottom=0;right=0;overflow=hidden;fontFamily=Lucida Console;fontSize=16;" parent="361" vertex="1"><mxGeometry x="420" width="270" height="45" as="geometry"><mxRectangle width="270" height="45" as="alternateBounds"/></mxGeometry></mxCell><mxCell id="423" value="" style="edgeStyle=orthogonalEdgeStyle;rounded=0;orthogonalLoop=1;jettySize=auto;html=1;fontFamily=Lucida Console;fontSize=16;" parent="98" source="402" target="419" edge="1"><mxGeometry relative="1" as="geometry"/></mxCell><mxCell id="402" value="通过投保人partyId查询customer服务得到channelUserNo" style="rounded=1;whiteSpace=wrap;html=1;fontFamily=Lucida Console;fontSize=16;" parent="98" vertex="1"><mxGeometry x="1296.25" y="1018" width="167.5" height="82" as="geometry"/></mxCell><mxCell id="409" value="" style="edgeStyle=orthogonalEdgeStyle;rounded=0;orthogonalLoop=1;jettySize=auto;html=1;fontFamily=Lucida Console;fontSize=16;" parent="98" source="407" target="408" edge="1"><mxGeometry relative="1" as="geometry"/></mxCell><mxCell id="407" value="通过被保人partyId查询customer服务得到channelUserNo" style="rounded=1;whiteSpace=wrap;html=1;fontFamily=Lucida Console;fontSize=16;" parent="98" vertex="1"><mxGeometry x="1796.25" y="1018" width="167.5" height="82" as="geometry"/></mxCell><mxCell id="405" value="" style="edgeStyle=orthogonalEdgeStyle;rounded=0;orthogonalLoop=1;jettySize=auto;html=1;fontFamily=Lucida Console;fontSize=13;exitX=0.5;exitY=1;exitDx=0;exitDy=0;" parent="98" source="428" target="407" edge="1"><mxGeometry relative="1" as="geometry"><mxPoint x="1880" y="960" as="sourcePoint"/></mxGeometry></mxCell><mxCell id="411" style="edgeStyle=orthogonalEdgeStyle;rounded=0;orthogonalLoop=1;jettySize=auto;html=1;entryX=0;entryY=0.5;entryDx=0;entryDy=0;entryPerimeter=0;fontFamily=Lucida Console;fontSize=16;dashed=1;" parent="98" source="408" target="410" edge="1"><mxGeometry relative="1" as="geometry"/></mxCell><mxCell id="413" value="" style="edgeStyle=orthogonalEdgeStyle;rounded=0;orthogonalLoop=1;jettySize=auto;html=1;fontFamily=Lucida Console;fontSize=16;" parent="98" source="408" target="412" edge="1"><mxGeometry relative="1" as="geometry"/></mxCell><mxCell id="408" value="查询bill详情&lt;br&gt;queryBcpBillHandler#operate" style="rounded=1;whiteSpace=wrap;html=1;fontFamily=Lucida Console;fontSize=16;" parent="98" vertex="1"><mxGeometry x="1815" y="1178" width="130" height="62" as="geometry"/></mxCell><mxCell id="410" value="bill&lt;br&gt;receivable_payable&lt;br&gt;bcp_ext_info" style="shape=note;size=0;whiteSpace=wrap;html=1;fontFamily=Lucida Console;fontSize=16;" parent="98" vertex="1"><mxGeometry x="2120" y="1158" width="200" height="102" as="geometry"/></mxCell><mxCell id="415" value="" style="edgeStyle=orthogonalEdgeStyle;rounded=0;orthogonalLoop=1;jettySize=auto;html=1;fontFamily=Lucida Console;fontSize=16;" parent="98" source="412" target="414" edge="1"><mxGeometry relative="1" as="geometry"/></mxCell><mxCell id="412" value="组装续期课金数据" style="rounded=1;whiteSpace=wrap;html=1;fontFamily=Lucida Console;fontSize=16;" parent="98" vertex="1"><mxGeometry x="1802.5" y="1318" width="155" height="52" as="geometry"/></mxCell><mxCell id="436" style="edgeStyle=orthogonalEdgeStyle;rounded=0;orthogonalLoop=1;jettySize=auto;html=1;entryX=1;entryY=0.5;entryDx=0;entryDy=0;entryPerimeter=0;fontFamily=Lucida Console;fontSize=16;exitX=0.5;exitY=1;exitDx=0;exitDy=0;" parent="98" source="414" target="434" edge="1"><mxGeometry relative="1" as="geometry"/></mxCell><mxCell id="414" value="插入到bcp的课金返金表（新增表）" style="rounded=1;whiteSpace=wrap;html=1;fontFamily=Lucida Console;fontSize=16;" parent="98" vertex="1"><mxGeometry x="1815" y="1448" width="130" height="62" as="geometry"/></mxCell><mxCell id="419" value="查询bill详情&lt;br&gt;queryBcpBillHandler#operate" style="rounded=1;whiteSpace=wrap;html=1;fontFamily=Lucida Console;fontSize=16;" parent="98" vertex="1"><mxGeometry x="1315" y="1183" width="130" height="62" as="geometry"/></mxCell><mxCell id="421" value="组装新单课金数据" style="rounded=1;whiteSpace=wrap;html=1;fontFamily=Lucida Console;fontSize=16;" parent="98" vertex="1"><mxGeometry x="1315" y="1323" width="130" height="62" as="geometry"/></mxCell><mxCell id="418" value="" style="edgeStyle=orthogonalEdgeStyle;rounded=0;orthogonalLoop=1;jettySize=auto;html=1;fontFamily=Lucida Console;fontSize=16;" parent="98" source="419" target="421" edge="1"><mxGeometry relative="1" as="geometry"/></mxCell><mxCell id="430" style="rounded=0;orthogonalLoop=1;jettySize=auto;html=1;entryX=1;entryY=0.5;entryDx=0;entryDy=0;dashed=1;fontFamily=Lucida Console;fontSize=16;exitX=0;exitY=0.5;exitDx=0;exitDy=0;" parent="98" source="422" target="386" edge="1"><mxGeometry relative="1" as="geometry"/></mxCell><mxCell id="435" style="edgeStyle=orthogonalEdgeStyle;rounded=0;orthogonalLoop=1;jettySize=auto;html=1;entryX=0;entryY=0.5;entryDx=0;entryDy=0;entryPerimeter=0;fontFamily=Lucida Console;fontSize=16;exitX=0.5;exitY=1;exitDx=0;exitDy=0;" parent="98" source="422" target="434" edge="1"><mxGeometry relative="1" as="geometry"/></mxCell><mxCell id="422" value="插入到bcp的课金返金表（新增表）" style="rounded=1;whiteSpace=wrap;html=1;fontFamily=Lucida Console;fontSize=16;" parent="98" vertex="1"><mxGeometry x="1315" y="1453" width="130" height="62" as="geometry"/></mxCell><mxCell id="420" value="" style="edgeStyle=orthogonalEdgeStyle;rounded=0;orthogonalLoop=1;jettySize=auto;html=1;fontFamily=Lucida Console;fontSize=16;" parent="98" source="421" target="422" edge="1"><mxGeometry relative="1" as="geometry"/></mxCell><mxCell id="428" value="查询保单详情" style="rounded=1;whiteSpace=wrap;html=1;fontFamily=Lucida Console;fontSize=16;" parent="98" vertex="1"><mxGeometry x="1817.5" y="898" width="125" height="42" as="geometry"/></mxCell><mxCell id="434" value="&lt;font color=&quot;#323232&quot;&gt;&lt;span style=&quot;background-color: rgba(255, 255, 255, 0.01);&quot;&gt;&lt;span style=&quot;font-size: 18px;&quot;&gt;stop&lt;/span&gt;&lt;br&gt;&lt;/span&gt;&lt;/font&gt;" style="strokeWidth=2;html=1;shape=mxgraph.flowchart.start_2;whiteSpace=wrap;fillColor=#f8cecc;strokeColor=#b85450;fontFamily=Lucida Console;" parent="98" vertex="1"><mxGeometry x="1591.51" y="1576" width="87" height="81" as="geometry"/></mxCell><mxCell id="437" value="&lt;font color=&quot;#323232&quot;&gt;&lt;span style=&quot;background-color: rgba(255, 255, 255, 0.01);&quot;&gt;&lt;span style=&quot;font-size: 18px;&quot;&gt;stop&lt;/span&gt;&lt;br&gt;&lt;/span&gt;&lt;/font&gt;" style="strokeWidth=2;html=1;shape=mxgraph.flowchart.start_2;whiteSpace=wrap;fillColor=#f8cecc;strokeColor=#b85450;fontFamily=Lucida Console;" parent="98" vertex="1"><mxGeometry x="2033" y="138.08" width="87" height="81" as="geometry"/></mxCell><mxCell id="452" value="&lt;div&gt;SELECT&lt;/div&gt;&lt;div&gt;&lt;span style=&quot;&quot;&gt;&#9;&lt;/span&gt;*&amp;nbsp;&lt;/div&gt;&lt;div&gt;FROM&lt;/div&gt;&lt;div&gt;&lt;span style=&quot;&quot;&gt;&#9;&lt;/span&gt;bill&amp;nbsp;&lt;/div&gt;&lt;div&gt;WHERE&lt;/div&gt;&lt;div&gt;&lt;span style=&quot;&quot;&gt;&#9;&lt;/span&gt;due_date &amp;gt;= '2022-11-01 00:00:00'&amp;nbsp;&lt;/div&gt;&lt;div&gt;&lt;span style=&quot;&quot;&gt;&#9;&lt;/span&gt;AND due_date &amp;lt;= '2022-11-30 23:59:00'&amp;nbsp;&lt;/div&gt;&lt;div&gt;&lt;span style=&quot;&quot;&gt;&#9;&lt;/span&gt;AND TRANS_TYPE IN ( 2, 4 )&amp;nbsp;&lt;/div&gt;&lt;div&gt;&lt;span style=&quot;&quot;&gt;&#9;&lt;/span&gt;AND bill_status = 2&amp;nbsp;&lt;br&gt;&lt;span style=&quot;&quot;&gt;&#9;&lt;/span&gt;AND AR_AP = 1&amp;nbsp;&lt;br&gt;&lt;/div&gt;&lt;div&gt;&lt;span style=&quot;&quot;&gt;&#9;&lt;/span&gt;AND arap_account_type = 135&lt;br&gt;AND id &amp;gt; 222&lt;br&gt;limit 1000&lt;br&gt;&lt;/div&gt;" style="shape=note;size=20;whiteSpace=wrap;html=1;align=left;fontSize=16;fontFamily=Lucida Console;" parent="98" vertex="1"><mxGeometry x="300" y="378" width="370" height="262" as="geometry"/></mxCell><mxCell id="220" value="customer" style="swimlane;horizontal=0;whiteSpace=wrap;html=1;fontSize=16;" parent="1" vertex="1"><mxGeometry x="20" y="471" width="2680" height="259" as="geometry"/></mxCell><mxCell id="404" value="/customer&lt;br style=&quot;font-size: 16px;&quot;&gt;/queryCustomerPage" style="rounded=1;whiteSpace=wrap;html=1;fontFamily=Lucida Console;fontSize=16;" parent="220" vertex="1"><mxGeometry x="2210" y="70" width="120" height="60" as="geometry"/></mxCell><mxCell id="417" style="edgeStyle=orthogonalEdgeStyle;rounded=0;orthogonalLoop=1;jettySize=auto;html=1;entryX=0.5;entryY=1;entryDx=0;entryDy=0;fontFamily=Lucida Console;fontSize=16;dashed=1;" parent="1" source="407" target="404" edge="1"><mxGeometry relative="1" as="geometry"/></mxCell><mxCell id="425" value="policy" style="swimlane;horizontal=0;whiteSpace=wrap;html=1;fontSize=16;" parent="1" vertex="1"><mxGeometry x="20" y="181" width="2680" height="249" as="geometry"/></mxCell><mxCell id="426" value="/policy&lt;br&gt;/queryPolicyByCondition" style="rounded=1;whiteSpace=wrap;html=1;fontFamily=Lucida Console;fontSize=16;" parent="425" vertex="1"><mxGeometry x="2090" y="80" width="120" height="60" as="geometry"/></mxCell><mxCell id="427" style="edgeStyle=orthogonalEdgeStyle;rounded=0;orthogonalLoop=1;jettySize=auto;html=1;entryX=0.5;entryY=1;entryDx=0;entryDy=0;fontFamily=Lucida Console;fontSize=16;dashed=1;exitX=1;exitY=0.5;exitDx=0;exitDy=0;" parent="1" source="428" target="426" edge="1"><mxGeometry relative="1" as="geometry"><mxPoint x="1965" y="1691" as="sourcePoint"/></mxGeometry></mxCell><mxCell id="439" value="foundation" style="swimlane;horizontal=0;whiteSpace=wrap;html=1;fontSize=16;" parent="1" vertex="1"><mxGeometry x="20" y="-110" width="2670" height="250" as="geometry"/></mxCell><mxCell id="440" value="/file&lt;br&gt;/operate" style="rounded=1;whiteSpace=wrap;html=1;fontFamily=Lucida Console;fontSize=16;" parent="439" vertex="1"><mxGeometry x="1593.57" y="60" width="120" height="60" as="geometry"/></mxCell><mxCell id="441" style="rounded=0;orthogonalLoop=1;jettySize=auto;html=1;fontFamily=Lucida Console;fontSize=16;dashed=1;" parent="1" source="253" target="440" edge="1"><mxGeometry relative="1" as="geometry"/></mxCell></root></mxGraphModel></diagram></mxfile>